custom-analysis
version=1
nRows=12
nColumns=42
inDegrees=no

This file contains tibia displacement and acting force.

Units are S.I. units (seconds, meters, Newtons, ...)
Angles are in degrees.

endheader
time	APT	SIT	knee_angle	aACL_R_force	pACL_R_force	aPCL_R_force	pPCL_R_force	aMCL_R_force	mMCL_R_force	pMCL_R_force	aLCL_R_force	mLCL_R_force	pLCL_R_force	aACL_R_length	pACL_R_length	aPCL_R_length	pPCL_R_length	aMCL_R_length	mMCL_R_length	pMCL_R_length	aLCL_R_length	mLCL_R_length	pLCL_R_length	aACL_R_strain	pACL_R_strain	aPCL_R_strain	pPCL_R_strain	aMCL_R_strain	mMCL_R_strain	pMCL_R_strain	aLCL_R_strain	mLCL_R_strain	pLCL_R_strain	femur_lat_meniscii_force_r	femur_lat_meniscii_torque_r	femur_med_meniscii_force_r	femur_med_meniscii_torque_r	femur_lat_tibia_force_r	femur_lat_tibia_torque_r	femur_med_tibia_force_r	femur_med_tibia_torque_r
      0.11677195	      0.00988242	      0.01795283	     59.00277167	      0.00000000	      0.00000000	    930.32354231	    574.46476265	     40.86080181	      0.00000000	      0.00000000	      0.00000000	      0.00000000	      0.00000000	      0.02976205	      0.02354348	      0.03680739	      0.03384313	      0.05889580	      0.05831936	      0.05520249	      0.05407215	      0.04927252	      0.04468792	     -0.04010402	     -0.07158182	      0.18369629	      0.12481248	      0.01497234	     -0.02465377	     -0.09098787	     -0.03403263	     -0.12511108	     -0.14624354	    352.86992167	    138.77902029	    173.64557998	     49.40151492	      0.00000000	      0.00000000	   1156.69381683	     26.12157108
      0.11718105	      0.00990103	      0.01806809	     59.31143528	      0.00000000	      0.00000000	    935.99700186	    577.61305954	     40.74535412	      0.00000000	      0.00000000	      0.00000000	      0.00000000	      0.00000000	      0.02975025	      0.02354037	      0.03684101	      0.03386796	      0.05891789	      0.05832283	      0.05519468	      0.05404546	      0.04923604	      0.04464861	     -0.04048466	     -0.07170456	      0.18477746	      0.12563755	      0.01535295	     -0.02459586	     -0.09111641	     -0.03450934	     -0.12575882	     -0.14699448	    362.94122751	    142.12408457	    164.77748159	     46.50016812	      0.00000000	      0.00000000	   1164.90971480	     26.27781927
      0.11790948	      0.00993380	      0.01827370	     59.86204814	      0.00000000	      0.00000000	    946.05817962	    583.34321891	     40.81701201	      0.00000000	      0.00000000	      0.00000000	      0.00000000	      0.00000000	      0.02972986	      0.02353563	      0.03690021	      0.03391165	      0.05895727	      0.05832929	      0.05518159	      0.05399765	      0.04917103	      0.04457894	     -0.04114240	     -0.07189142	      0.18668138	      0.12708961	      0.01603160	     -0.02448783	     -0.09133205	     -0.03536357	     -0.12691312	     -0.14832552	    362.84799065	    142.58242373	    164.93823362	     47.58562406	      0.00000000	      0.00000000	   1172.32204193	     26.44919004
      0.11798233	      0.00993702	      0.01829430	     59.91717414	      0.00000000	      0.00000000	    947.10685620	    584.04544051	     40.85971240	      0.00000000	      0.00000000	      0.00000000	      0.00000000	      0.00000000	      0.02972783	      0.02353518	      0.03690609	      0.03391598	      0.05896119	      0.05832993	      0.05518032	      0.05399283	      0.04916451	      0.04457199	     -0.04120791	     -0.07190907	      0.18687029	      0.12723370	      0.01609915	     -0.02447701	     -0.09135295	     -0.03544961	     -0.12702884	     -0.14845839	    364.30847158	    143.23606222	    155.38828616	     44.62514897	      0.00000000	      0.00000000	   1171.95468561	     26.44167948
      0.11817023	      0.00994524	      0.01834749	     60.05942268	      0.00000000	      0.00000000	    949.77676375	    585.77615212	     40.84801821	      0.00000000	      0.00000000	      0.00000000	      0.00000000	      0.00000000	      0.02972256	      0.02353402	      0.03692124	      0.03392718	      0.05897129	      0.05833162	      0.05517709	      0.05398040	      0.04914771	      0.04455409	     -0.04137785	     -0.07195481	      0.18735766	      0.12760582	      0.01627333	     -0.02444880	     -0.09140604	     -0.03567169	     -0.12732716	     -0.14880040	    365.76711875	    143.79925810	    154.66910465	     44.33992061	      0.00000000	      0.00000000	   1173.40543705	     26.48257564
      0.11857798	      0.00996258	      0.01846293	     60.36832410	      0.00000000	      0.00000000	    955.76615714	    590.04599115	     41.04847325	      0.00000000	      0.00000000	      0.00000000	      0.00000000	      0.00000000	      0.02971103	      0.02353153	      0.03695423	      0.03395164	      0.05899330	      0.05833546	      0.05517046	      0.05395349	      0.04911141	      0.04451553	     -0.04174963	     -0.07205314	      0.18841857	      0.12841874	      0.01665262	     -0.02438458	     -0.09151535	     -0.03615234	     -0.12797176	     -0.14953692	    357.22868364	    141.21680648	    160.01665872	     47.19215926	      0.00000000	      0.00000000	   1173.81501318	     26.44894113
      0.11907386	      0.00998244	      0.01860376	     60.74434521	      0.00000000	      0.00000000	    962.92035612	    594.92470339	     40.65335081	      0.00000000	      0.00000000	      0.00000000	      0.00000000	      0.00000000	      0.02969635	      0.02352811	      0.03699444	      0.03398161	      0.05901985	      0.05834014	      0.05516274	      0.05392062	      0.04906727	      0.04446895	     -0.04222309	     -0.07218780	      0.18971160	      0.12941479	      0.01711012	     -0.02430635	     -0.09164233	     -0.03673962	     -0.12875545	     -0.15042683	    352.96608225	    139.89367900	    160.43327491	     47.25792412	      0.00000000	      0.00000000	   1178.68554548	     26.50466700
      0.11929339	      0.00999077	      0.01866626	     60.91094115	      0.00000000	      0.00000000	    966.04908248	    596.97325836	     40.53752031	      0.00000000	      0.00000000	      0.00000000	      0.00000000	      0.00000000	      0.02968965	      0.02352651	      0.03701225	      0.03399493	      0.05903151	      0.05834219	      0.05515943	      0.05390599	      0.04904771	      0.04444842	     -0.04243919	     -0.07225077	      0.19028445	      0.12985768	      0.01731102	     -0.02427201	     -0.09169685	     -0.03700098	     -0.12910273	     -0.15081917	    353.96044439	    140.28469364	    162.71927426	     47.76638158	      0.00000000	      0.00000000	   1182.31347080	     26.59999839
      0.11966362	      0.01000440	      0.01877180	     61.19210266	      0.00000000	      0.00000000	    971.28740760	    600.32720927	     40.58372462	      0.00000000	      0.00000000	      0.00000000	      0.00000000	      0.00000000	      0.02967832	      0.02352391	      0.03704223	      0.03401740	      0.05905110	      0.05834569	      0.05515403	      0.05388123	      0.04901472	      0.04441390	     -0.04280466	     -0.07235331	      0.19124864	      0.13060441	      0.01764875	     -0.02421358	     -0.09178577	     -0.03744328	     -0.12968856	     -0.15147859	    357.03864910	    141.44072621	    164.90082803	     49.12120050	      0.00000000	      0.00000000	   1184.49465490	     26.67005673
      0.11998042	      0.01001565	      0.01886217	     61.43290232	      0.00000000	      0.00000000	    975.82049723	    603.34754714	     40.58633450	      0.00000000	      0.00000000	      0.00000000	      0.00000000	      0.00000000	      0.02966865	      0.02352183	      0.03706788	      0.03403667	      0.05906788	      0.05834877	      0.05514967	      0.05386003	      0.04898655	      0.04438455	     -0.04311666	     -0.07243541	      0.19207348	      0.13124487	      0.01793788	     -0.02416192	     -0.09185770	     -0.03782207	     -0.13018882	     -0.15203939	    354.49566007	    140.69154558	    162.34887674	     48.27184434	      0.00000000	      0.00000000	   1186.59103343	     26.73558176
      0.12037604	      0.01002909	      0.01897525	     61.73387496	      0.00000000	      0.00000000	    981.33641969	    606.78964911	     40.30401164	      0.00000000	      0.00000000	      0.00000000	      0.00000000	      0.00000000	      0.02965640	      0.02351923	      0.03709983	      0.03406073	      0.05908870	      0.05835263	      0.05514441	      0.05383340	      0.04895132	      0.04434802	     -0.04351162	     -0.07253789	      0.19310104	      0.13204453	      0.01829674	     -0.02409745	     -0.09194420	     -0.03829773	     -0.13081434	     -0.15273728	    351.55016009	    139.75479998	    157.14676950	     46.43661662	      0.00000000	      0.00000000	   1194.65551590	     26.88773730
      0.12059900	      0.01003638	      0.01903911	     61.90362636	      0.00000000	      0.00000000	    984.53420997	    608.98855609	     40.31029824	      0.00000000	      0.00000000	      0.00000000	      0.00000000	      0.00000000	      0.02964940	      0.02351774	      0.03711779	      0.03407427	      0.05910037	      0.05835479	      0.05514154	      0.05381831	      0.04893143	      0.04432748	     -0.04373754	     -0.07259668	      0.19367849	      0.13249470	      0.01849771	     -0.02406134	     -0.09199150	     -0.03856733	     -0.13116750	     -0.15312964	    349.36420637	    139.11193004	    163.42302192	     49.35089990	      0.00000000	      0.00000000	   1194.15993739	     26.87802600
